<?xml version="1.0" standalone="no"?>
<!DOCTYPE svg PUBLIC "-//W3C//DTD SVG 20010904//EN"
 "http://www.w3.org/TR/2001/REC-SVG-20010904/DTD/svg10.dtd">
<svg version="1.0" xmlns="http://www.w3.org/2000/svg"
 width="400.000000pt" height="400.000000pt" viewBox="0 0 400.000000 400.000000"
 preserveAspectRatio="xMidYMid meet">
<metadata>
Created by potrace 1.11, written by Peter Selinger 2001-2013
</metadata>
<g transform="translate(0.000000,400.000000) scale(0.100000,-0.100000)"
fill="#000000" stroke="none">
<path d="M1900 3064 c-94 -20 -201 -76 -274 -145 -40 -37 -72 -59 -87 -59 -33
-1 -100 -33 -126 -61 -70 -76 -69 -203 1 -273 19 -20 26 -39 30 -88 13 -138
64 -247 165 -349 57 -57 94 -85 147 -109 60 -28 74 -40 94 -78 65 -121 235
-137 324 -32 14 17 28 41 31 53 4 15 29 33 78 57 51 25 94 57 151 112 l78 78
28 -20 c43 -31 50 -26 51 38 1 31 3 82 5 112 8 116 10 180 6 180 -11 0 -312
-156 -312 -162 0 -3 16 -16 35 -28 19 -12 35 -25 35 -30 0 -19 -58 -76 -114
-112 l-59 -38 -22 24 c-37 40 -85 60 -145 60 -60 -1 -101 -17 -141 -58 l-27
-26 -52 35 c-28 19 -67 52 -86 72 -45 50 -92 146 -100 204 -6 46 -6 47 30 64
44 21 89 73 104 121 12 41 6 107 -13 145 -14 26 -13 29 22 60 20 17 67 46 103
63 59 28 74 31 165 31 89 0 107 -3 162 -29 l63 -29 -4 -45 c-11 -153 121 -262
260 -215 142 48 182 229 73 331 -48 45 -125 67 -180 52 -20 -6 -38 -1 -75 23
-117 73 -281 100 -424 71z m608 -173 c11 -6 30 -25 42 -41 39 -55 22 -172 -22
-149 -14 8 -17 22 -17 69 1 68 -11 90 -50 90 -49 0 -64 -21 -69 -93 -4 -56 -7
-66 -26 -71 -32 -8 -49 17 -50 72 -1 63 17 97 68 122 42 20 87 21 124 1z m-18
-102 c14 -25 -11 -69 -39 -69 -16 0 -59 48 -49 54 4 2 72 35 75 35 1 1 7 -8
13 -20z m-843 -31 c44 -41 53 -125 19 -171 -12 -16 -17 -16 -35 -5 -18 11 -21
23 -21 74 0 66 -7 78 -52 86 -52 10 -80 -47 -69 -138 2 -14 -27 -27 -40 -19
-17 11 -28 74 -18 109 13 48 38 75 83 90 46 16 99 5 133 -26z m854 -62 l32
-14 -34 -7 c-40 -9 -81 -9 -111 1 -21 6 -20 7 8 19 39 18 65 18 105 1z m-911
-26 c9 -17 6 -25 -14 -45 -31 -31 -41 -31 -62 0 -19 29 -20 27 21 48 39 21 42
21 55 -3z m-5 -87 c11 -6 24 -11 28 -11 5 0 11 -2 13 -5 9 -9 -86 -18 -121
-11 -37 7 -48 24 -16 24 11 0 22 4 25 8 6 11 47 8 71 -5z m502 -473 c18 -10
39 -30 48 -44 21 -32 22 -94 2 -133 -13 -25 -21 -29 -42 -25 -34 6 -37 14 -21
53 19 49 5 94 -34 108 -26 8 -34 7 -54 -12 -31 -27 -35 -62 -14 -104 14 -28
14 -32 1 -37 -51 -20 -89 26 -80 95 13 97 114 148 194 99z m-49 -107 c33 -8
37 -22 13 -54 -22 -30 -27 -44 -12 -34 5 3 12 1 15 -4 4 -5 -3 -12 -14 -16
-24 -8 -62 3 -55 15 3 5 12 7 20 3 8 -3 15 0 15 6 0 6 -4 11 -10 11 -17 0 -39
45 -33 68 4 17 10 21 22 16 9 -3 26 -9 39 -11z"/>
<path d="M2048 2695 c-3 -6 -15 -66 -27 -135 -12 -69 -26 -147 -32 -173 -11
-60 -12 -90 0 -83 5 3 12 26 16 52 3 25 8 56 11 67 2 12 7 36 9 52 3 17 13 69
21 117 15 81 16 126 2 103z"/>
<path d="M1862 2558 c-41 -29 -72 -59 -72 -68 0 -14 135 -120 153 -120 3 0 4
8 3 18 -2 9 -31 36 -65 59 l-63 42 66 47 c36 26 66 54 66 61 0 21 -11 16 -88
-39z"/>
<path d="M2090 2593 c0 -11 26 -35 60 -58 33 -22 60 -42 60 -45 0 -3 -27 -23
-60 -45 -32 -21 -61 -47 -63 -57 -3 -10 -3 -18 0 -18 14 0 146 96 154 112 8
14 -4 27 -65 73 -41 30 -77 55 -80 55 -4 0 -6 -8 -6 -17z"/>
<path d="M3480 1642 c-17 -22 -60 -100 -95 -173 -62 -132 -100 -188 -116 -172
-5 5 -4 23 3 40 14 36 0 96 -22 100 -45 8 -66 -56 -40 -115 18 -39 18 -43 2
-61 -27 -32 -72 -52 -94 -40 -35 19 -19 87 39 157 19 24 33 46 30 49 -7 7 -66
-42 -87 -71 -8 -12 -21 -28 -30 -37 -18 -18 -54 -34 -45 -19 6 9 9 22 19 76 5
25 -19 64 -39 64 -40 0 -55 -101 -20 -140 13 -15 13 -19 -5 -38 -28 -29 -75
-53 -93 -46 -45 17 -13 124 56 186 11 10 14 19 8 22 -14 9 -86 -58 -105 -98
-33 -70 -11 -126 50 -126 31 0 78 27 104 58 8 11 28 23 44 26 23 6 27 4 23 -9
-9 -22 12 -63 35 -71 36 -11 86 6 116 40 16 18 41 35 55 38 31 6 32 3 12 -32
-18 -32 -18 -37 0 -44 10 -3 20 6 31 27 28 53 114 157 145 173 26 13 30 13 35
0 3 -8 0 -27 -8 -42 -10 -23 -20 -28 -48 -29 -25 0 -36 -5 -38 -17 -3 -14 3
-18 22 -18 25 0 33 -10 19 -24 -12 -12 -14 -48 -2 -62 27 -33 68 -12 127 64
47 59 24 53 -27 -8 -56 -66 -76 -67 -66 -2 4 26 15 55 27 65 24 23 39 62 32
81 -15 38 -73 21 -137 -42 l-38 -37 17 35 c10 19 43 60 75 90 73 71 109 126
112 176 2 36 0 39 -25 42 -20 2 -33 -5 -58 -36z m51 -55 c-18 -38 -101 -137
-115 -137 -5 0 31 86 64 150 11 21 30 46 42 55 22 15 23 14 26 -5 2 -11 -6
-40 -17 -63z m-507 -184 c6 -24 1 -67 -12 -90 -10 -16 -12 -15 -21 10 -12 32
-14 58 -5 81 8 21 31 20 38 -1z m234 1 c9 -16 0 -79 -12 -92 -19 -19 -40 60
-24 91 11 21 24 22 36 1z m177 -84 c-3 -5 -11 -10 -16 -10 -6 0 -7 5 -4 10 3
6 11 10 16 10 6 0 7 -4 4 -10z"/>
<path d="M2702 1658 c-7 -7 -39 -10 -82 -9 -125 4 -230 -39 -315 -130 -137
-146 -112 -337 43 -331 102 4 146 48 242 245 38 78 78 153 88 166 18 22 20 23
44 7 52 -34 64 -116 25 -162 -23 -27 -25 -27 -71 -14 -34 9 -50 10 -58 2 -21
-21 0 -41 48 -44 55 -4 86 -35 87 -90 1 -66 -49 -118 -115 -118 -31 0 -85 34
-93 59 -3 12 -10 21 -15 21 -15 0 1 -33 33 -67 36 -38 81 -50 132 -33 93 31
125 142 60 213 -25 26 -25 26 -5 37 72 39 67 161 -10 207 -21 12 -28 23 -24
35 6 21 3 23 -14 6z m-63 -69 c-17 -22 -62 -102 -100 -178 -72 -145 -117 -200
-164 -202 -14 -1 -31 -2 -37 -3 -24 -4 -63 14 -76 34 -51 82 38 262 166 338
57 33 158 60 206 54 l36 -4 -31 -39z m27 -178 c-3 -5 -15 -7 -26 -4 -28 7 -25
13 6 13 14 0 23 -4 20 -9z"/>
<path d="M936 1652 c-3 -5 -43 -7 -89 -6 -135 5 -240 -32 -325 -114 -102 -99
-140 -253 -79 -324 31 -36 63 -50 112 -50 97 0 148 49 232 222 75 157 82 170
111 209 l25 34 34 -36 c39 -43 43 -85 13 -135 -25 -41 -55 -53 -88 -36 -28 14
-52 9 -52 -12 0 -7 16 -16 35 -20 52 -9 63 -45 35 -109 -45 -105 30 -159 109
-77 20 20 41 46 48 57 12 20 12 20 12 -1 2 -47 76 -75 133 -50 18 7 48 27 66
45 31 30 32 30 32 8 0 -82 109 -50 179 53 34 50 43 86 29 113 -9 17 -11 17
-28 2 -13 -12 -17 -27 -13 -62 4 -43 1 -48 -40 -88 -49 -47 -85 -62 -94 -39
-9 24 6 80 37 139 16 30 25 57 21 59 -9 6 -71 -76 -71 -92 0 -6 -24 -35 -52
-65 -60 -63 -114 -83 -146 -54 -35 32 -25 53 31 67 95 24 153 114 92 142 -20
9 -33 8 -64 -7 -49 -22 -65 -39 -125 -137 -50 -83 -77 -108 -113 -108 -28 0
-29 19 -8 81 14 40 14 60 0 109 -3 10 6 20 25 29 38 16 60 58 60 112 0 35 -6
47 -41 82 -38 38 -39 42 -23 54 16 11 16 13 2 13 -9 0 -19 -4 -22 -8z m-77
-74 c-23 -29 -67 -105 -97 -168 -64 -133 -101 -191 -135 -213 -56 -36 -139
-24 -172 26 -23 35 -15 118 18 182 67 133 213 223 365 224 l62 1 -41 -52z
m385 -173 c12 -32 -107 -125 -130 -102 -8 8 26 59 60 89 34 31 61 36 70 13z
m251 -20 c-4 -38 -15 -43 -15 -7 0 18 4 32 9 32 5 0 8 -11 6 -25z"/>
<path d="M1636 1484 c-9 -25 -7 -34 9 -34 16 0 38 34 28 44 -12 11 -31 6 -37
-10z"/>
<path d="M1755 1426 c-37 -17 -63 -43 -123 -126 -30 -41 -56 -66 -70 -68 -20
-3 -22 0 -17 29 3 18 21 61 40 96 51 95 19 77 -46 -25 -61 -96 -15 -162 64
-92 l35 30 12 -29 c28 -68 151 -55 205 22 l15 21 0 -25 c0 -52 49 -65 94 -24
14 13 27 22 27 20 1 -3 2 -8 3 -12 9 -51 60 -44 117 17 27 28 50 46 54 40 8
-13 25 -13 25 0 0 6 -7 10 -16 10 -13 0 -15 6 -9 33 3 17 8 39 9 47 5 21 -13
52 -25 44 -18 -11 -26 -47 -19 -81 6 -26 3 -39 -16 -65 -29 -39 -65 -68 -76
-62 -14 9 -9 60 12 126 23 75 22 68 9 68 -5 0 -23 -29 -39 -64 -16 -35 -41
-77 -55 -95 -31 -35 -65 -42 -65 -11 0 30 30 112 53 144 19 27 19 28 1 24 -10
-2 -34 -26 -51 -53 -64 -99 -79 -115 -122 -136 -53 -27 -91 -18 -102 23 -6 24
-4 27 30 33 50 9 105 42 124 74 13 22 14 31 4 52 -15 29 -41 34 -82 15z m60
-15 c17 -28 -51 -97 -106 -108 l-32 -6 17 29 c44 73 102 114 121 85z m344 -18
c0 -5 -4 -17 -9 -28 -8 -18 -9 -17 -9 8 -1 15 4 27 9 27 6 0 10 -3 9 -7z"/>
</g>
</svg>
